<svg width="16" height="16" viewBox="0 0 16 16" fill="none" xmlns="http://www.w3.org/2000/svg">
<g clip-path="url(#clip0_319_36)">
<path d="M6 0.278239C6.09737 0.396975 6.15701 0.54211 6.17126 0.695C6.18552 0.847889 6.15374 1.00155 6.08 1.13624C5.50154 2.19759 5.19959 3.38749 5.202 4.59624C5.202 8.61724 8.48 11.8732 12.52 11.8732C13.048 11.8726 13.559 11.8192 14.053 11.7132C14.2041 11.6809 14.3614 11.6936 14.5054 11.7498C14.6494 11.806 14.7737 11.9031 14.863 12.0292C14.9575 12.1605 15.0057 12.3194 15.0001 12.481C14.9945 12.6427 14.9354 12.7978 14.832 12.9222C14.0476 13.8856 13.0582 14.6618 11.9358 15.1943C10.8134 15.7268 9.58631 16.0021 8.344 16.0002C3.734 16.0002 0 12.2862 0 7.71024C0 4.26624 2.114 1.31224 5.124 0.0602385C5.27389 -0.00346141 5.44043 -0.0166427 5.59847 0.0226867C5.75651 0.0620161 5.89745 0.151719 6 0.278239Z" fill="white"/>
</g>
<defs>
<clipPath id="clip0_319_36">
<rect width="16" height="16" fill="white"/>
</clipPath>
</defs>
</svg>
