<svg width="20" height="20" viewBox="0 0 20 20" fill="none" xmlns="http://www.w3.org/2000/svg">
<g clip-path="url(#clip0_316_91)">
<path d="M14.9286 9.95238C14.9286 11.2721 14.4043 12.5379 13.4711 13.4711C12.5379 14.4043 11.2721 14.9286 9.95238 14.9286C8.63261 14.9286 7.3669 14.4043 6.43368 13.4711C5.50046 12.5379 4.97619 11.2721 4.97619 9.95238C4.97619 8.63261 5.50046 7.3669 6.43368 6.43368C7.3669 5.50046 8.63261 4.97619 9.95238 4.97619C11.2721 4.97619 12.5379 5.50046 13.4711 6.43368C14.4043 7.3669 14.9286 8.63261 14.9286 9.95238ZM9.95238 0C10.1173 0 10.2756 0.0655345 10.3922 0.182187C10.5089 0.298839 10.5744 0.457053 10.5744 0.622024V3.11012C10.5744 3.27509 10.5089 3.4333 10.3922 3.54996C10.2756 3.66661 10.1173 3.73214 9.95238 3.73214C9.78741 3.73214 9.62919 3.66661 9.51254 3.54996C9.39589 3.4333 9.33035 3.27509 9.33035 3.11012V0.622024C9.33035 0.457053 9.39589 0.298839 9.51254 0.182187C9.62919 0.0655345 9.78741 0 9.95238 0ZM9.95238 16.1726C10.1173 16.1726 10.2756 16.2381 10.3922 16.3548C10.5089 16.4715 10.5744 16.6297 10.5744 16.7946V19.2827C10.5744 19.4477 10.5089 19.6059 10.3922 19.7226C10.2756 19.8392 10.1173 19.9048 9.95238 19.9048C9.78741 19.9048 9.62919 19.8392 9.51254 19.7226C9.39589 19.6059 9.33035 19.4477 9.33035 19.2827V16.7946C9.33035 16.6297 9.39589 16.4715 9.51254 16.3548C9.62919 16.2381 9.78741 16.1726 9.95238 16.1726ZM19.9048 9.95238C19.9048 10.1173 19.8392 10.2756 19.7226 10.3922C19.6059 10.5089 19.4477 10.5744 19.2827 10.5744H16.7946C16.6297 10.5744 16.4715 10.5089 16.3548 10.3922C16.2381 10.2756 16.1726 10.1173 16.1726 9.95238C16.1726 9.78741 16.2381 9.62919 16.3548 9.51254C16.4715 9.39589 16.6297 9.33035 16.7946 9.33035H19.2827C19.4477 9.33035 19.6059 9.39589 19.7226 9.51254C19.8392 9.62919 19.9048 9.78741 19.9048 9.95238ZM3.73214 9.95238C3.73214 10.1173 3.66661 10.2756 3.54996 10.3922C3.4333 10.5089 3.27509 10.5744 3.11012 10.5744H0.622024C0.457053 10.5744 0.298839 10.5089 0.182187 10.3922C0.0655345 10.2756 0 10.1173 0 9.95238C0 9.78741 0.0655345 9.62919 0.182187 9.51254C0.298839 9.39589 0.457053 9.33035 0.622024 9.33035H3.11012C3.27509 9.33035 3.4333 9.39589 3.54996 9.51254C3.66661 9.62919 3.73214 9.78741 3.73214 9.95238ZM16.99 2.9148C17.1066 3.03145 17.1721 3.18964 17.1721 3.35457C17.1721 3.51951 17.1066 3.6777 16.99 3.79434L15.2309 5.55467C15.173 5.61242 15.1044 5.65822 15.0289 5.68944C14.9533 5.72066 14.8724 5.73671 14.7907 5.73665C14.6256 5.73653 14.4673 5.67085 14.3507 5.55405C14.293 5.49622 14.2472 5.42757 14.2159 5.35204C14.1847 5.27651 14.1687 5.19557 14.1687 5.11384C14.1688 4.94878 14.2345 4.79052 14.3513 4.67389L16.1104 2.9148C16.2271 2.79819 16.3852 2.73268 16.5502 2.73268C16.7151 2.73268 16.8733 2.79819 16.99 2.9148ZM5.55343 14.3513C5.67004 14.468 5.73555 14.6262 5.73555 14.7911C5.73555 14.956 5.67004 15.1142 5.55343 15.2309L3.79434 16.99C3.67703 17.1033 3.5199 17.166 3.35681 17.1645C3.19372 17.1631 3.03771 17.0977 2.92238 16.9824C2.80705 16.867 2.74163 16.711 2.74022 16.5479C2.7388 16.3849 2.8015 16.2277 2.9148 16.1104L4.67389 14.3513C4.79053 14.2347 4.94872 14.1692 5.11366 14.1692C5.27859 14.1692 5.43678 14.2347 5.55343 14.3513ZM16.99 16.99C16.8733 17.1066 16.7151 17.1721 16.5502 17.1721C16.3852 17.1721 16.2271 17.1066 16.1104 16.99L14.3513 15.2309C14.238 15.1136 14.1753 14.9564 14.1767 14.7933C14.1782 14.6302 14.2436 14.4742 14.3589 14.3589C14.4742 14.2436 14.6302 14.1782 14.7933 14.1767C14.9564 14.1753 15.1136 14.238 15.2309 14.3513L16.99 16.1104C17.1066 16.2271 17.1721 16.3852 17.1721 16.5502C17.1721 16.7151 17.1066 16.8733 16.99 16.99ZM5.55343 5.55467C5.43678 5.67128 5.27859 5.73679 5.11366 5.73679C4.94872 5.73679 4.79053 5.67128 4.67389 5.55467L2.9148 3.79434C2.85539 3.73696 2.80801 3.66833 2.77541 3.59244C2.74281 3.51655 2.72565 3.43493 2.72493 3.35233C2.72421 3.26974 2.73995 3.18784 2.77123 3.11139C2.8025 3.03495 2.84869 2.9655 2.90709 2.90709C2.9655 2.84869 3.03495 2.8025 3.11139 2.77123C3.18784 2.73995 3.26974 2.72421 3.35233 2.72493C3.43493 2.72565 3.51655 2.74281 3.59244 2.77541C3.66833 2.80801 3.73696 2.85539 3.79434 2.9148L5.55343 4.67389C5.61135 4.73167 5.65731 4.80031 5.68867 4.87588C5.72003 4.95145 5.73617 5.03246 5.73617 5.11428C5.73617 5.1961 5.72003 5.27711 5.68867 5.35268C5.65731 5.42825 5.61135 5.49689 5.55343 5.55467Z" fill="#3D3D3D"/>
</g>
<defs>
<clipPath id="clip0_316_91">
<rect width="19.9048" height="19.9048" fill="white"/>
</clipPath>
</defs>
</svg>
